<svg xmlns="http://www.w3.org/2000/svg" viewBox="0 0 100 100" width="96" height="96" class="cw-avatar" data-role="dns-ddi" aria-hidden="true"><style>.cw-happy-eyes,.cw-big-smile{display:none}</style><g data-part="character" class="cw-character" fill="#FAAE54" stroke-linecap="round" stroke-linejoin="round"><g data-part="feet" stroke="#FAAE54" stroke-width="5.5" fill="none"><path d="M40 79v8m20-8v8"/></g><g data-part="appendages" class="cw-appendages" fill="#FAAE54" stroke="#FAAE54" stroke-width="5.5"><path d="M23 43H17m6 16H17m60-16h6m-6 16h6" fill="none"/></g><g data-part="body"><rect x="23" y="27" width="54" height="52" rx="10"/></g><g data-part="details" fill="#16302C"><rect x="44" y="72" width="12" height="3" rx="1.5"/></g><g data-part="eyebrows" fill="none" stroke="#16302C" stroke-width="3.2"></g><g data-part="eyes" class="cw-eyes" fill="#16302C"><g class="cw-open-eyes"><rect x="39" y="43" width="6.5" height="10" rx="3.25"/><rect x="55" y="43" width="6.5" height="10" rx="3.25"/></g><g class="cw-happy-eyes" fill="none" stroke="#16302C" stroke-width="3"><path d="M38 50q4-8 9 0m7 0q4-8 9 0"/></g></g><g data-part="mouth" class="cw-mouth" fill="none" stroke="#16302C" stroke-width="3.2"><path class="cw-smile" d="M44 59q6 6 12 0"/><path class="cw-big-smile" d="M42 58q8 10 16 0"/></g></g></svg>
